<svg xmlns="http://www.w3.org/2000/svg" xmlns:xlink="http://www.w3.org/1999/xlink" width="240" height="38.962" viewBox="0 0 240 38.962"><defs><clipPath id="a"><path d="M42.693,126.428v.638h1.759v4.494h.726v-4.494h1.76v-.638Z" transform="translate(-42.693 -126.428)" fill="#fff"/></clipPath><clipPath id="b"><path d="M57.441,126.428v2.207H54.494v-2.207h-.733v5.132h.733v-2.287h2.947v2.287h.733v-5.132Z" transform="translate(-53.761 -126.428)" fill="#fff"/></clipPath><clipPath id="c"><path d="M66.823,126.428v5.132h3.724v-.638H67.556v-1.657h2.573v-.623H67.556v-1.576h2.888v-.638Z" transform="translate(-66.823 -126.428)" fill="#fff"/></clipPath><clipPath id="d"><path d="M82.906,127.176l1.107,2.515H81.8Zm-.359-.748-2.324,5.132h.755l.565-1.283H84.27l.565,1.283H85.6l-2.331-5.132Z" transform="translate(-80.223 -126.428)" fill="#fff"/></clipPath><clipPath id="e"><path d="M93.953,126.641a2.5,2.5,0,0,0-.975.938,2.747,2.747,0,0,0,0,2.69,2.505,2.505,0,0,0,.972.938,2.826,2.826,0,0,0,1.389.341,2.888,2.888,0,0,0,1.1-.205,2.282,2.282,0,0,0,.854-.6l-.477-.462a1.914,1.914,0,0,1-1.444.616,2.1,2.1,0,0,1-1.034-.257,1.858,1.858,0,0,1-.722-.708,2.079,2.079,0,0,1,0-2.016,1.858,1.858,0,0,1,.722-.708,2.1,2.1,0,0,1,1.034-.256,1.911,1.911,0,0,1,1.444.608l.477-.462a2.25,2.25,0,0,0-.851-.6,2.9,2.9,0,0,0-1.1-.2,2.851,2.851,0,0,0-1.393.341" transform="translate(-92.626 -126.3)" fill="#fff"/></clipPath><clipPath id="f"><path d="M105.878,127.176l1.107,2.515h-2.214Zm-.36-.748-2.324,5.132h.755l.565-1.283h2.727l.565,1.283h.769l-2.331-5.132Z" transform="translate(-103.195 -126.428)" fill="#fff"/></clipPath><clipPath id="g"><path d="M117.409,127.066h1.386a2.371,2.371,0,0,1,1.1.242,1.752,1.752,0,0,1,.73.679,2.1,2.1,0,0,1,0,2.016,1.749,1.749,0,0,1-.73.679,2.377,2.377,0,0,1-1.1.242h-1.386Zm-.733-.638v5.132h2.163a3.129,3.129,0,0,0,1.444-.323,2.371,2.371,0,0,0,.978-.905,2.745,2.745,0,0,0,0-2.676,2.368,2.368,0,0,0-.978-.906,3.129,3.129,0,0,0-1.444-.323Z" transform="translate(-116.676 -126.428)" fill="#fff"/></clipPath><clipPath id="h"><path d="M129.964,126.428v5.132h3.724v-.638H130.7v-1.657h2.573v-.623H130.7v-1.576h2.889v-.638Z" transform="translate(-129.964 -126.428)" fill="#fff"/></clipPath><clipPath id="i"><path d="M145.595,126.428l-2.111,3.607-2.141-3.607h-.6v5.132h.7v-3.717l1.855,3.094h.337l1.855-3.116.007,3.739h.7l-.007-5.132Z" transform="translate(-140.741 -126.428)" fill="#fff"/></clipPath><clipPath id="j"><rect width="0.733" height="5.132" fill="#fff"/></clipPath><clipPath id="k"><path d="M161.5,126.641a2.5,2.5,0,0,0-.975.938,2.747,2.747,0,0,0,0,2.69,2.505,2.505,0,0,0,.972.938,2.826,2.826,0,0,0,1.389.341,2.886,2.886,0,0,0,1.1-.205,2.286,2.286,0,0,0,.854-.6l-.477-.462a1.916,1.916,0,0,1-1.444.616,2.094,2.094,0,0,1-1.034-.257,1.859,1.859,0,0,1-.722-.708,2.082,2.082,0,0,1,0-2.016,1.859,1.859,0,0,1,.722-.708,2.093,2.093,0,0,1,1.034-.256,1.912,1.912,0,0,1,1.444.608l.477-.462a2.252,2.252,0,0,0-.85-.6,2.9,2.9,0,0,0-1.1-.2,2.857,2.857,0,0,0-1.394.341" transform="translate(-160.174 -126.3)" fill="#fff"/></clipPath><clipPath id="m"><path d="M185.716,126.428v3.827l-3.079-3.827h-.6v5.132h.733v-3.827l3.079,3.827h.6v-5.132Z" transform="translate(-182.036 -126.428)" fill="#fff"/></clipPath><clipPath id="o"><path d="M198.46,126.428v.638h1.759v4.494h.726v-4.494h1.76v-.638Z" transform="translate(-198.46 -126.428)" fill="#fff"/></clipPath><clipPath id="q"><path d="M215.492,127.176l1.107,2.515h-2.214Zm-.359-.748-2.324,5.132h.755l.565-1.283h2.728l.564,1.283h.77l-2.331-5.132Z" transform="translate(-212.809 -126.428)" fill="#fff"/></clipPath><clipPath id="r"><path d="M224.1,126.428v.638h1.76v4.494h.726v-4.494h1.76v-.638Z" transform="translate(-224.103 -126.428)" fill="#fff"/></clipPath><clipPath id="t"><path d="M242.84,126.428l-1.862,4.216-1.848-4.216h-.792l2.258,5.132h.726l2.251-5.132Z" transform="translate(-238.339 -126.428)" fill="#fff"/></clipPath><clipPath id="u"><path d="M251.257,126.428v5.132h3.724v-.638H251.99v-1.657h2.574v-.623H251.99v-1.576h2.888v-.638Z" transform="translate(-251.257 -126.428)" fill="#fff"/></clipPath><clipPath id="v"><path d="M267.157,130.64a1.864,1.864,0,0,1-.718-.708,2.079,2.079,0,0,1,0-2.016,1.864,1.864,0,0,1,.718-.708,2.057,2.057,0,0,1,1.023-.256,2.02,2.02,0,0,1,1.016.256,1.878,1.878,0,0,1,.71.708,2.079,2.079,0,0,1,0,2.016,1.878,1.878,0,0,1-.71.708,2.02,2.02,0,0,1-1.016.257,2.058,2.058,0,0,1-1.023-.257m-.377-4a2.519,2.519,0,0,0-.979.942,2.711,2.711,0,0,0,0,2.684,2.519,2.519,0,0,0,.979.942,3.031,3.031,0,0,0,2.793,0,2.506,2.506,0,0,0,.975-.938,2.751,2.751,0,0,0,0-2.69,2.5,2.5,0,0,0-.975-.938,3.031,3.031,0,0,0-2.793,0" transform="translate(-265.445 -126.3)" fill="#fff"/></clipPath><clipPath id="w"><path d="M279.875,126.428v5.132h.733v-2.075h2.574v-.63h-2.574v-1.789H283.5v-.638Z" transform="translate(-279.875 -126.428)" fill="#fff"/></clipPath><clipPath id="x"><path d="M292.793,126.428v.638h1.76v4.494h.726v-4.494h1.76v-.638Z" transform="translate(-292.793 -126.428)" fill="#fff"/></clipPath><clipPath id="y"><path d="M307.54,126.428v2.207h-2.947v-2.207h-.733v5.132h.733v-2.287h2.947v2.287h.734v-5.132Z" transform="translate(-303.86 -126.428)" fill="#fff"/></clipPath><clipPath id="z"><path d="M316.922,126.428v5.132h3.724v-.638h-2.991v-1.657h2.573v-.623h-2.573v-1.576h2.888v-.638Z" transform="translate(-316.922 -126.428)" fill="#fff"/></clipPath><clipPath id="aa"><path d="M332.438,126.641a2.5,2.5,0,0,0-.975.938,2.747,2.747,0,0,0,0,2.69,2.507,2.507,0,0,0,.971.938,2.83,2.83,0,0,0,1.39.341,2.881,2.881,0,0,0,1.1-.205,2.275,2.275,0,0,0,.854-.6l-.477-.462a1.914,1.914,0,0,1-1.444.616,2.1,2.1,0,0,1-1.034-.257,1.859,1.859,0,0,1-.722-.708,2.082,2.082,0,0,1,0-2.016,1.859,1.859,0,0,1,.722-.708,2.1,2.1,0,0,1,1.034-.256,1.911,1.911,0,0,1,1.444.608l.477-.462a2.243,2.243,0,0,0-.85-.6,2.9,2.9,0,0,0-1.1-.2,2.854,2.854,0,0,0-1.393.341" transform="translate(-331.111 -126.3)" fill="#fff"/></clipPath><clipPath id="ab"><path d="M345.789,126.428l-1.65,2.705-1.642-2.705h-.785l2.038,3.343v1.789h.726v-1.774l2.038-3.358Z" transform="translate(-341.712 -126.428)" fill="#fff"/></clipPath><clipPath id="ac"><path d="M354.413,129.258H356.1q1.254,0,1.254.857a.716.716,0,0,1-.316.646,1.736,1.736,0,0,1-.938.205h-1.686Zm0-2.236h1.5a1.525,1.525,0,0,1,.869.209.768.768,0,0,1,0,1.224,1.529,1.529,0,0,1-.869.209h-1.5Zm-.733-.594v5.132h2.449a2.5,2.5,0,0,0,1.463-.359,1.187,1.187,0,0,0,.5-1.027,1.293,1.293,0,0,0-.257-.824,1.318,1.318,0,0,0-.7-.451,1.224,1.224,0,0,0,.5-.447,1.269,1.269,0,0,0,.186-.7,1.14,1.14,0,0,0-.48-.975,2.267,2.267,0,0,0-1.359-.352Z" transform="translate(-353.68 -126.428)" fill="#fff"/></clipPath><clipPath id="ad"><path d="M365.858,126.428v5.132h3.724v-.638h-2.992v-1.657h2.574v-.623h-2.574v-1.576h2.889v-.638Z" transform="translate(-365.858 -126.428)" fill="#fff"/></clipPath><clipPath id="ae"><path d="M377.37,127.066h1.246a1.656,1.656,0,0,1,1.063.3,1.184,1.184,0,0,1,0,1.712,1.64,1.64,0,0,1-1.063.3H377.37Zm-.733-.638v5.132h.733V130h1.268q.117,0,.323-.015l1.107,1.576h.8l-1.217-1.723a1.652,1.652,0,0,0,.836-.608,1.721,1.721,0,0,0,.294-1.012,1.618,1.618,0,0,0-.572-1.313,2.381,2.381,0,0,0-1.569-.476Z" transform="translate(-376.637 -126.428)" fill="#fff"/></clipPath><clipPath id="ag"><path d="M401.326,126.428v3.827l-3.079-3.827h-.6v5.132h.733v-3.827l3.079,3.827h.6v-5.132Z" transform="translate(-397.645 -126.428)" fill="#fff"/></clipPath><clipPath id="ah"><path d="M414.389,126.428v3.827l-3.079-3.827h-.6v5.132h.733v-3.827l3.079,3.827h.6v-5.132Z" transform="translate(-410.708 -126.428)" fill="#fff"/></clipPath><clipPath id="ai"><path d="M424.565,130.64a1.867,1.867,0,0,1-.718-.708,2.082,2.082,0,0,1,0-2.016,1.867,1.867,0,0,1,.718-.708,2.058,2.058,0,0,1,1.023-.256,2.018,2.018,0,0,1,1.015.256,1.883,1.883,0,0,1,.711.708,2.082,2.082,0,0,1,0,2.016,1.883,1.883,0,0,1-.711.708,2.018,2.018,0,0,1-1.015.257,2.058,2.058,0,0,1-1.023-.257m-.377-4a2.518,2.518,0,0,0-.978.942,2.707,2.707,0,0,0,0,2.684,2.518,2.518,0,0,0,.978.942,3.032,3.032,0,0,0,2.794,0,2.5,2.5,0,0,0,.975-.938,2.747,2.747,0,0,0,0-2.69,2.5,2.5,0,0,0-.975-.938,3.032,3.032,0,0,0-2.794,0" transform="translate(-422.853 -126.3)" fill="#fff"/></clipPath><clipPath id="aj"><path d="M439.725,126.428l-1.862,4.216-1.847-4.216h-.792l2.258,5.132h.726l2.251-5.132Z" transform="translate(-435.224 -126.428)" fill="#fff"/></clipPath><clipPath id="ak"><path d="M448.766,127.176l1.107,2.515h-2.214Zm-.36-.748-2.324,5.132h.755l.564-1.283h2.728l.564,1.283h.77l-2.331-5.132Z" transform="translate(-446.083 -126.428)" fill="#fff"/></clipPath><clipPath id="al"><path d="M457.376,126.428v.638h1.76v4.494h.726v-4.494h1.76v-.638Z" transform="translate(-457.376 -126.428)" fill="#fff"/></clipPath><clipPath id="an"><path d="M474.225,130.64a1.865,1.865,0,0,1-.718-.708,2.083,2.083,0,0,1,0-2.016,1.865,1.865,0,0,1,.718-.708,2.06,2.06,0,0,1,1.023-.256,2.017,2.017,0,0,1,1.016.256,1.881,1.881,0,0,1,.711.708,2.082,2.082,0,0,1,0,2.016,1.881,1.881,0,0,1-.711.708,2.017,2.017,0,0,1-1.016.257,2.061,2.061,0,0,1-1.023-.257m-.377-4a2.518,2.518,0,0,0-.978.942,2.707,2.707,0,0,0,0,2.684,2.518,2.518,0,0,0,.978.942,3.032,3.032,0,0,0,2.793,0,2.5,2.5,0,0,0,.975-.938,2.747,2.747,0,0,0,0-2.69,2.5,2.5,0,0,0-.975-.938,3.031,3.031,0,0,0-2.793,0" transform="translate(-472.513 -126.3)" fill="#fff"/></clipPath><clipPath id="ao"><path d="M490.624,126.428v3.827l-3.079-3.827h-.6v5.132h.733v-3.827l3.079,3.827h.6v-5.132Z" transform="translate(-486.943 -126.428)" fill="#fff"/></clipPath><clipPath id="ap"><path d="M504.743,126.641a2.5,2.5,0,0,0-.975.938,2.751,2.751,0,0,0,0,2.69,2.512,2.512,0,0,0,.972.938,2.827,2.827,0,0,0,1.39.341,2.883,2.883,0,0,0,1.1-.205,2.281,2.281,0,0,0,.854-.6l-.477-.462a1.916,1.916,0,0,1-1.444.616,2.1,2.1,0,0,1-1.034-.257,1.859,1.859,0,0,1-.722-.708,2.082,2.082,0,0,1,0-2.016,1.859,1.859,0,0,1,.722-.708,2.1,2.1,0,0,1,1.034-.256,1.912,1.912,0,0,1,1.444.608l.477-.462a2.248,2.248,0,0,0-.85-.6,2.9,2.9,0,0,0-1.1-.2,2.854,2.854,0,0,0-1.393.341" transform="translate(-503.416 -126.3)" fill="#fff"/></clipPath><clipPath id="aq"><path d="M515.963,126.428v5.132h3.724v-.638H516.7v-1.657h2.574v-.623H516.7v-1.576h2.889v-.638Z" transform="translate(-515.963 -126.428)" fill="#fff"/></clipPath><clipPath id="ar"><path d="M530.422,126.428v3.827l-3.079-3.827h-.6v5.132h.733v-3.827l3.08,3.827h.6v-5.132Z" transform="translate(-526.741 -126.428)" fill="#fff"/></clipPath><clipPath id="as"><path d="M538.179,126.428v.638h1.759v4.494h.726v-4.494h1.76v-.638Z" transform="translate(-538.179 -126.428)" fill="#fff"/></clipPath><clipPath id="at"><path d="M549.246,126.428v5.132h3.725v-.638h-2.992v-1.657h2.573v-.623h-2.573v-1.576h2.888v-.638Z" transform="translate(-549.246 -126.428)" fill="#fff"/></clipPath><clipPath id="au"><path d="M560.757,127.066H562a1.656,1.656,0,0,1,1.063.3,1.182,1.182,0,0,1,0,1.712,1.64,1.64,0,0,1-1.063.3h-1.246Zm-.733-.638v5.132h.733V130h1.268q.118,0,.323-.015l1.107,1.576h.8l-1.217-1.723a1.658,1.658,0,0,0,.836-.608,1.721,1.721,0,0,0,.293-1.012,1.617,1.617,0,0,0-.572-1.313,2.381,2.381,0,0,0-1.569-.476Z" transform="translate(-560.024 -126.428)" fill="#fff"/></clipPath></defs><g transform="translate(-48 -48)"><path d="M254.436,53.364H235.761a1.157,1.157,0,0,0-1.157,1.158v2.872a1.157,1.157,0,0,0,1.157,1.158h18.675a1.157,1.157,0,0,0,1.157-1.158V54.522a1.157,1.157,0,0,0-1.157-1.158" transform="translate(-99.142 -4.891)" fill="#fff"/><path d="M254.436,77.541H235.761A1.157,1.157,0,0,0,234.6,78.7V81.57a1.157,1.157,0,0,0,1.157,1.157h18.675a1.157,1.157,0,0,0,1.157-1.157V78.7a1.157,1.157,0,0,0-1.157-1.157" transform="translate(-99.142 -18.049)" fill="#fff"/><path d="M254.436,102.946H235.761A1.157,1.157,0,0,0,234.6,104.1v2.872a1.157,1.157,0,0,0,1.157,1.157h18.675a1.157,1.157,0,0,0,1.157-1.157V104.1a1.157,1.157,0,0,0-1.157-1.157" transform="translate(-99.142 -31.876)" fill="#fff"/><path d="M65.914,73.063a1.164,1.164,0,0,0-1.6.031,8.691,8.691,0,0,1-6.225,2.488,9.27,9.27,0,0,1-4.6-1.131A8.036,8.036,0,0,1,50.333,71.3a9.933,9.933,0,0,1,0-9.207,8.035,8.035,0,0,1,3.155-3.155,9.27,9.27,0,0,1,4.6-1.131,8.747,8.747,0,0,1,6.224,2.458,1.165,1.165,0,0,0,1.595.026l2.445-2.256a1.161,1.161,0,0,0,.039-1.67A13.159,13.159,0,0,0,64.3,53.6a17.224,17.224,0,0,0-14.247.576,13.775,13.775,0,0,0-5.4,5.119,14.926,14.926,0,0,0,0,14.8,13.779,13.779,0,0,0,5.4,5.12,15.957,15.957,0,0,0,7.679,1.845,16.341,16.341,0,0,0,6.548-1.27,12.927,12.927,0,0,0,4.132-2.812,1.156,1.156,0,0,0-.051-1.655Z" transform="translate(5.307 -4.327)" fill="#fff"/><path d="M128.29,53.372h-3.609a1.157,1.157,0,0,0-.992.561L117.6,64.065a1.158,1.158,0,0,1-1.984,0l-6.092-10.132a1.158,1.158,0,0,0-.992-.561h-4.124a1.157,1.157,0,0,0-.991,1.754l9.532,15.829a1.153,1.153,0,0,1,.166.6v8.443a1.157,1.157,0,0,0,1.158,1.157h4.114a1.157,1.157,0,0,0,1.157-1.157V71.631a1.16,1.16,0,0,1,.165-.6l9.573-15.909a1.157,1.157,0,0,0-.991-1.754" transform="translate(-27.65 -4.895)" fill="#fff"/><path d="M190.117,67.459a1.145,1.145,0,0,1-.171-1.83,6.637,6.637,0,0,0,1.171-1.423,7.475,7.475,0,0,0,.773-5.53l-.075-.252q-2.054-5.049-10.243-5.052H169.157A1.157,1.157,0,0,0,168,54.529V79.994a1.157,1.157,0,0,0,1.157,1.157h13.209q5.436,0,8.274-1.964a6.422,6.422,0,0,0,2.837-5.616,6.95,6.95,0,0,0-1.349-4.345,6.865,6.865,0,0,0-2.011-1.766M174.389,59.37a1.157,1.157,0,0,1,1.157-1.157h5.232a6.58,6.58,0,0,1,3.611.813,2.732,2.732,0,0,1,1.23,2.44,2.779,2.779,0,0,1-1.23,2.461,6.451,6.451,0,0,1-3.611.834h-5.232a1.157,1.157,0,0,1-1.157-1.157Zm11.33,16.106a7.126,7.126,0,0,1-3.83.834h-6.343a1.157,1.157,0,0,1-1.157-1.157V70.6a1.157,1.157,0,0,1,1.157-1.157h6.343q5.12,0,5.119,3.453a2.854,2.854,0,0,1-1.29,2.58" transform="translate(-62.892 -4.895)" fill="#fff"/><path d="M312.136,71.64a9.074,9.074,0,0,0,3.071-2.852,9.428,9.428,0,0,0,1.488-5.338,9.623,9.623,0,0,0-1.468-5.357A9.526,9.526,0,0,0,311.04,54.6a15.438,15.438,0,0,0-6.409-1.231H293.763a1.157,1.157,0,0,0-1.157,1.157V79.994a1.157,1.157,0,0,0,1.157,1.157h4.115a1.157,1.157,0,0,0,1.157-1.157V74.569a1.157,1.157,0,0,1,1.157-1.157h4.756l5.012,7.24a1.158,1.158,0,0,0,.952.5h4.08a1.157,1.157,0,0,0,.949-1.819l-4.2-6.022a1.16,1.16,0,0,1,.4-1.669m-3.457-4.618a6.675,6.675,0,0,1-4.4,1.27h-4.082a1.157,1.157,0,0,1-1.157-1.157V59.767a1.157,1.157,0,0,1,1.157-1.157h4.082a6.754,6.754,0,0,1,4.4,1.25,5.007,5.007,0,0,1,0,7.163" transform="translate(-130.71 -4.895)" fill="#fff"/><path d="M356.191,98.13a3.833,3.833,0,0,0-2.739,1.052,3.623,3.623,0,0,0-1.111,2.758,3.769,3.769,0,0,0,1.111,2.778,3.93,3.93,0,0,0,5.477,0,3.77,3.77,0,0,0,1.111-2.778,3.623,3.623,0,0,0-1.111-2.758,3.833,3.833,0,0,0-2.738-1.052" transform="translate(-163.221 -29.255)" fill="#fff"/><path d="M396.828,54.192a17.191,17.191,0,0,0-15.576,0,13.84,13.84,0,0,0-5.437,5.139,14.777,14.777,0,0,0,0,14.723,13.837,13.837,0,0,0,5.437,5.139,17.195,17.195,0,0,0,15.576,0,14.168,14.168,0,0,0,0-25m-.218,17.1a8.118,8.118,0,0,1-3.115,3.155,9.3,9.3,0,0,1-8.889,0,8.112,8.112,0,0,1-3.115-3.155,9.933,9.933,0,0,1,0-9.207,8.115,8.115,0,0,1,3.115-3.155,9.3,9.3,0,0,1,8.889,0,8.121,8.121,0,0,1,3.115,3.155,9.937,9.937,0,0,1,0,9.207" transform="translate(-174.928 -4.327)" fill="#fff"/><path d="M470.7,71.64a9.074,9.074,0,0,0,3.071-2.852,9.428,9.428,0,0,0,1.488-5.338,9.623,9.623,0,0,0-1.468-5.357,9.526,9.526,0,0,0-4.186-3.492,15.438,15.438,0,0,0-6.409-1.231H452.331a1.157,1.157,0,0,0-1.157,1.157V79.994a1.157,1.157,0,0,0,1.157,1.157h4.115a1.157,1.157,0,0,0,1.157-1.157V74.569a1.157,1.157,0,0,1,1.157-1.157h4.756l5.012,7.24a1.158,1.158,0,0,0,.952.5h4.08a1.157,1.157,0,0,0,.949-1.819l-4.2-6.022a1.16,1.16,0,0,1,.4-1.669m-3.457-4.618a6.674,6.674,0,0,1-4.4,1.27H458.76a1.157,1.157,0,0,1-1.157-1.157V59.767a1.157,1.157,0,0,1,1.157-1.157h4.082a6.754,6.754,0,0,1,4.4,1.25,5.006,5.006,0,0,1,0,7.163" transform="translate(-217.012 -4.895)" fill="#fff"/><path d="M529.526,66.225a1.157,1.157,0,0,0-1.157,1.157v2.872a1.157,1.157,0,0,0,1.157,1.157H530.7a1.157,1.157,0,0,1,1.157,1.157v1.1a1.171,1.171,0,0,1-.711,1.072,10.648,10.648,0,0,1-4.289.846A9.468,9.468,0,0,1,522.2,74.45,8.134,8.134,0,0,1,519,71.3a9.858,9.858,0,0,1,0-9.247,7.972,7.972,0,0,1,3.214-3.135A9.81,9.81,0,0,1,526.94,57.8a9.435,9.435,0,0,1,6.424,2.4,1.162,1.162,0,0,0,1.558-.006l2.463-2.273a1.16,1.16,0,0,0,.024-1.686,13.276,13.276,0,0,0-4.158-2.685,17.2,17.2,0,0,0-6.628-1.23,16.558,16.558,0,0,0-7.857,1.845,13.669,13.669,0,0,0-5.457,5.119,14.924,14.924,0,0,0,0,14.8,13.739,13.739,0,0,0,5.417,5.119,16.242,16.242,0,0,0,7.779,1.845,20.341,20.341,0,0,0,5.992-.913,16.994,16.994,0,0,0,4.756-2.27,1.148,1.148,0,0,0,.483-.945V67.382a1.157,1.157,0,0,0-1.157-1.157Z" transform="translate(-249.76 -4.326)" fill="#fff"/><g transform="translate(48 81.771)"><path d="M42.693,126.428v.638h1.759v4.494h.726v-4.494h1.76v-.638Z" transform="translate(-42.693 -126.428)" fill="#fff"/><g transform="translate(0 0)" clip-path="url(#a)"><rect width="4.245" height="5.132" transform="translate(0)" fill="#fff"/></g></g><g transform="translate(53.044 81.771)"><path d="M57.441,126.428v2.207H54.494v-2.207h-.733v5.132h.733v-2.287h2.947v2.287h.733v-5.132Z" transform="translate(-53.761 -126.428)" fill="#fff"/><g transform="translate(0 0)" clip-path="url(#b)"><rect width="4.413" height="5.132" transform="translate(0)" fill="#fff"/></g></g><g transform="translate(58.997 81.771)"><path d="M66.823,126.428v5.132h3.724v-.638H67.556v-1.657h2.573v-.623H67.556v-1.576h2.888v-.638Z" transform="translate(-66.823 -126.428)" fill="#fff"/><g transform="translate(0 0)" clip-path="url(#c)"><rect width="3.724" height="5.132" transform="translate(0)" fill="#fff"/></g></g><g transform="translate(65.104 81.771)"><path d="M82.906,127.176l1.107,2.515H81.8Zm-.359-.748-2.324,5.132h.755l.565-1.283H84.27l.565,1.283H85.6l-2.331-5.132Z" transform="translate(-80.223 -126.428)" fill="#fff"/><g transform="translate(0 0)" clip-path="url(#d)"><rect width="5.381" height="5.132" transform="translate(0 0)" fill="#fff"/></g></g><g transform="translate(70.757 81.713)"><path d="M93.953,126.641a2.5,2.5,0,0,0-.975.938,2.747,2.747,0,0,0,0,2.69,2.505,2.505,0,0,0,.972.938,2.826,2.826,0,0,0,1.389.341,2.888,2.888,0,0,0,1.1-.205,2.282,2.282,0,0,0,.854-.6l-.477-.462a1.914,1.914,0,0,1-1.444.616,2.1,2.1,0,0,1-1.034-.257,1.858,1.858,0,0,1-.722-.708,2.079,2.079,0,0,1,0-2.016,1.858,1.858,0,0,1,.722-.708,2.1,2.1,0,0,1,1.034-.256,1.911,1.911,0,0,1,1.444.608l.477-.462a2.25,2.25,0,0,0-.851-.6,2.9,2.9,0,0,0-1.1-.2,2.851,2.851,0,0,0-1.393.341" transform="translate(-92.626 -126.3)" fill="#fff"/><g clip-path="url(#e)"><rect width="4.67" height="5.249" transform="translate(0 0)" fill="#fff"/></g></g><g transform="translate(75.573 81.771)"><path d="M105.878,127.176l1.107,2.515h-2.214Zm-.36-.748-2.324,5.132h.755l.565-1.283h2.727l.565,1.283h.769l-2.331-5.132Z" transform="translate(-103.195 -126.428)" fill="#fff"/><g transform="translate(0 0)" clip-path="url(#f)"><rect width="5.381" height="5.132" transform="translate(0 0)" fill="#fff"/></g></g><g transform="translate(81.717 81.771)"><path d="M117.409,127.066h1.386a2.371,2.371,0,0,1,1.1.242,1.752,1.752,0,0,1,.73.679,2.1,2.1,0,0,1,0,2.016,1.749,1.749,0,0,1-.73.679,2.377,2.377,0,0,1-1.1.242h-1.386Zm-.733-.638v5.132h2.163a3.129,3.129,0,0,0,1.444-.323,2.371,2.371,0,0,0,.978-.905,2.745,2.745,0,0,0,0-2.676,2.368,2.368,0,0,0-.978-.906,3.129,3.129,0,0,0-1.444-.323Z" transform="translate(-116.676 -126.428)" fill="#fff"/><g transform="translate(0 0)" clip-path="url(#g)"><rect width="4.934" height="5.132" transform="translate(0 0)" fill="#fff"/></g></g><g transform="translate(87.773 81.771)"><path d="M129.964,126.428v5.132h3.724v-.638H130.7v-1.657h2.573v-.623H130.7v-1.576h2.889v-.638Z" transform="translate(-129.964 -126.428)" fill="#fff"/><g transform="translate(0 0)" clip-path="url(#h)"><rect width="3.724" height="5.132" fill="#fff"/></g></g><g transform="translate(92.685 81.771)"><path d="M145.595,126.428l-2.111,3.607-2.141-3.607h-.6v5.132h.7v-3.717l1.855,3.094h.337l1.855-3.116.007,3.739h.7l-.007-5.132Z" transform="translate(-140.741 -126.428)" fill="#fff"/><g transform="translate(0 0)" clip-path="url(#i)"><rect width="5.462" height="5.132" fill="#fff"/></g></g><g transform="translate(99.686 81.771)"><rect width="0.733" height="5.132" transform="translate(0 0)" fill="#fff"/><g transform="translate(0 0)" clip-path="url(#j)"><rect width="0.733" height="5.132" fill="#fff"/></g></g><g transform="translate(101.541 81.713)"><path d="M161.5,126.641a2.5,2.5,0,0,0-.975.938,2.747,2.747,0,0,0,0,2.69,2.505,2.505,0,0,0,.972.938,2.826,2.826,0,0,0,1.389.341,2.886,2.886,0,0,0,1.1-.205,2.286,2.286,0,0,0,.854-.6l-.477-.462a1.916,1.916,0,0,1-1.444.616,2.094,2.094,0,0,1-1.034-.257,1.859,1.859,0,0,1-.722-.708,2.082,2.082,0,0,1,0-2.016,1.859,1.859,0,0,1,.722-.708,2.093,2.093,0,0,1,1.034-.256,1.912,1.912,0,0,1,1.444.608l.477-.462a2.252,2.252,0,0,0-.85-.6,2.9,2.9,0,0,0-1.1-.2,2.857,2.857,0,0,0-1.394.341" transform="translate(-160.174 -126.3)" fill="#fff"/><g clip-path="url(#k)"><rect width="4.67" height="5.249" transform="translate(0 0)" fill="#fff"/></g></g><g transform="translate(109.232 81.771)"><rect width="0.733" height="5.132" transform="translate(0 0)" fill="#fff"/><g transform="translate(0 0)" clip-path="url(#j)"><rect width="0.733" height="5.132" fill="#fff"/></g></g><g transform="translate(111.504 81.771)"><path d="M185.716,126.428v3.827l-3.079-3.827h-.6v5.132h.733v-3.827l3.079,3.827h.6v-5.132Z" transform="translate(-182.036 -126.428)" fill="#fff"/><g transform="translate(0 0)" clip-path="url(#m)"><rect width="4.413" height="5.132" fill="#fff"/></g></g><g transform="translate(117.457 81.771)"><rect width="0.733" height="5.132" transform="translate(0 0)" fill="#fff"/><g transform="translate(0 0)" clip-path="url(#j)"><rect width="0.733" height="5.132" transform="translate(0)" fill="#fff"/></g></g><g transform="translate(118.99 81.771)"><path d="M198.46,126.428v.638h1.759v4.494h.726v-4.494h1.76v-.638Z" transform="translate(-198.46 -126.428)" fill="#fff"/><g transform="translate(0 0)" clip-path="url(#o)"><rect width="4.245" height="5.132" transform="translate(0)" fill="#fff"/></g></g><g transform="translate(124.034 81.771)"><rect width="0.733" height="5.132" transform="translate(0 0)" fill="#fff"/><g transform="translate(0 0)" clip-path="url(#j)"><rect width="0.733" height="5.132" transform="translate(0)" fill="#fff"/></g></g><g transform="translate(125.529 81.771)"><path d="M215.492,127.176l1.107,2.515h-2.214Zm-.359-.748-2.324,5.132h.755l.565-1.283h2.728l.564,1.283h.77l-2.331-5.132Z" transform="translate(-212.809 -126.428)" fill="#fff"/><g transform="translate(0 0)" clip-path="url(#q)"><rect width="5.381" height="5.132" transform="translate(0 0)" fill="#fff"/></g></g><g transform="translate(130.676 81.771)"><path d="M224.1,126.428v.638h1.76v4.494h.726v-4.494h1.76v-.638Z" transform="translate(-224.103 -126.428)" fill="#fff"/><g transform="translate(0 0)" clip-path="url(#r)"><rect width="4.245" height="5.132" transform="translate(0)" fill="#fff"/></g></g><g transform="translate(135.72 81.771)"><rect width="0.733" height="5.132" transform="translate(0 0)" fill="#fff"/><g transform="translate(0 0)" clip-path="url(#j)"><rect width="0.733" height="5.132" transform="translate(0)" fill="#fff"/></g></g><g transform="translate(137.164 81.771)"><path d="M242.84,126.428l-1.862,4.216-1.848-4.216h-.792l2.258,5.132h.726l2.251-5.132Z" transform="translate(-238.339 -126.428)" fill="#fff"/><g transform="translate(0 0)" clip-path="url(#t)"><rect width="5.235" height="5.132" fill="#fff"/></g></g><g transform="translate(143.051 81.771)"><path d="M251.257,126.428v5.132h3.724v-.638H251.99v-1.657h2.574v-.623H251.99v-1.576h2.888v-.638Z" transform="translate(-251.257 -126.428)" fill="#fff"/><g transform="translate(0 0)" clip-path="url(#u)"><rect width="3.724" height="5.132" transform="translate(0)" fill="#fff"/></g></g><g transform="translate(149.517 81.713)"><path d="M267.157,130.64a1.864,1.864,0,0,1-.718-.708,2.079,2.079,0,0,1,0-2.016,1.864,1.864,0,0,1,.718-.708,2.057,2.057,0,0,1,1.023-.256,2.02,2.02,0,0,1,1.016.256,1.878,1.878,0,0,1,.71.708,2.079,2.079,0,0,1,0,2.016,1.878,1.878,0,0,1-.71.708,2.02,2.02,0,0,1-1.016.257,2.058,2.058,0,0,1-1.023-.257m-.377-4a2.519,2.519,0,0,0-.979.942,2.711,2.711,0,0,0,0,2.684,2.519,2.519,0,0,0,.979.942,3.031,3.031,0,0,0,2.793,0,2.506,2.506,0,0,0,.975-.938,2.751,2.751,0,0,0,0-2.69,2.5,2.5,0,0,0-.975-.938,3.031,3.031,0,0,0-2.793,0" transform="translate(-265.445 -126.3)" fill="#fff"/><g transform="translate(0)" clip-path="url(#v)"><rect width="5.454" height="5.249" transform="translate(0 0)" fill="#fff"/></g></g><g transform="translate(156.094 81.771)"><path d="M279.875,126.428v5.132h.733v-2.075h2.574v-.63h-2.574v-1.789H283.5v-.638Z" transform="translate(-279.875 -126.428)" fill="#fff"/><g transform="translate(0 0)" clip-path="url(#w)"><rect width="3.622" height="5.132" fill="#fff"/></g></g><g transform="translate(161.981 81.771)"><path d="M292.793,126.428v.638h1.76v4.494h.726v-4.494h1.76v-.638Z" transform="translate(-292.793 -126.428)" fill="#fff"/><g transform="translate(0 0)" clip-path="url(#x)"><rect width="4.245" height="5.132" transform="translate(0)" fill="#fff"/></g></g><g transform="translate(167.025 81.771)"><path d="M307.54,126.428v2.207h-2.947v-2.207h-.733v5.132h.733v-2.287h2.947v2.287h.734v-5.132Z" transform="translate(-303.86 -126.428)" fill="#fff"/><g transform="translate(0 0)" clip-path="url(#y)"><rect width="4.414" height="5.132" transform="translate(0)" fill="#fff"/></g></g><g transform="translate(172.978 81.771)"><path d="M316.922,126.428v5.132h3.724v-.638h-2.991v-1.657h2.573v-.623h-2.573v-1.576h2.888v-.638Z" transform="translate(-316.922 -126.428)" fill="#fff"/><g transform="translate(0 0)" clip-path="url(#z)"><rect width="3.724" height="5.132" transform="translate(0)" fill="#fff"/></g></g><g transform="translate(179.444 81.713)"><path d="M332.438,126.641a2.5,2.5,0,0,0-.975.938,2.747,2.747,0,0,0,0,2.69,2.507,2.507,0,0,0,.971.938,2.83,2.83,0,0,0,1.39.341,2.881,2.881,0,0,0,1.1-.205,2.275,2.275,0,0,0,.854-.6l-.477-.462a1.914,1.914,0,0,1-1.444.616,2.1,2.1,0,0,1-1.034-.257,1.859,1.859,0,0,1-.722-.708,2.082,2.082,0,0,1,0-2.016,1.859,1.859,0,0,1,.722-.708,2.1,2.1,0,0,1,1.034-.256,1.911,1.911,0,0,1,1.444.608l.477-.462a2.243,2.243,0,0,0-.85-.6,2.9,2.9,0,0,0-1.1-.2,2.854,2.854,0,0,0-1.393.341" transform="translate(-331.111 -126.3)" fill="#fff"/><g clip-path="url(#aa)"><rect width="4.67" height="5.249" transform="translate(0 0)" fill="#fff"/></g></g><g transform="translate(184.275 81.771)"><path d="M345.789,126.428l-1.65,2.705-1.642-2.705h-.785l2.038,3.343v1.789h.726v-1.774l2.038-3.358Z" transform="translate(-341.712 -126.428)" fill="#fff"/><g transform="translate(0 0)" clip-path="url(#ab)"><rect width="4.802" height="5.132" transform="translate(0)" fill="#fff"/></g></g><g transform="translate(189.73 81.771)"><path d="M354.413,129.258H356.1q1.254,0,1.254.857a.716.716,0,0,1-.316.646,1.736,1.736,0,0,1-.938.205h-1.686Zm0-2.236h1.5a1.525,1.525,0,0,1,.869.209.768.768,0,0,1,0,1.224,1.529,1.529,0,0,1-.869.209h-1.5Zm-.733-.594v5.132h2.449a2.5,2.5,0,0,0,1.463-.359,1.187,1.187,0,0,0,.5-1.027,1.293,1.293,0,0,0-.257-.824,1.318,1.318,0,0,0-.7-.451,1.224,1.224,0,0,0,.5-.447,1.269,1.269,0,0,0,.186-.7,1.14,1.14,0,0,0-.48-.975,2.267,2.267,0,0,0-1.359-.352Z" transform="translate(-353.68 -126.428)" fill="#fff"/><g transform="translate(0 0)" clip-path="url(#ac)"><rect width="4.414" height="5.132" transform="translate(0 0)" fill="#fff"/></g></g><g transform="translate(195.28 81.771)"><path d="M365.858,126.428v5.132h3.724v-.638h-2.992v-1.657h2.574v-.623h-2.574v-1.576h2.889v-.638Z" transform="translate(-365.858 -126.428)" fill="#fff"/><g transform="translate(0 0)" clip-path="url(#ad)"><rect width="3.724" height="5.132" transform="translate(0)" fill="#fff"/></g></g><g transform="translate(200.192 81.771)"><path d="M377.37,127.066h1.246a1.656,1.656,0,0,1,1.063.3,1.184,1.184,0,0,1,0,1.712,1.64,1.64,0,0,1-1.063.3H377.37Zm-.733-.638v5.132h.733V130h1.268q.117,0,.323-.015l1.107,1.576h.8l-1.217-1.723a1.652,1.652,0,0,0,.836-.608,1.721,1.721,0,0,0,.294-1.012,1.618,1.618,0,0,0-.572-1.313,2.381,2.381,0,0,0-1.569-.476Z" transform="translate(-376.637 -126.428)" fill="#fff"/><g transform="translate(0 0)" clip-path="url(#ae)"><rect width="4.23" height="5.132" transform="translate(0 0)" fill="#fff"/></g></g><g transform="translate(207.494 81.771)"><rect width="0.733" height="5.132" transform="translate(0 0)" fill="#fff"/><g transform="translate(0 0)" clip-path="url(#j)"><rect width="0.733" height="5.132" transform="translate(0)" fill="#fff"/></g></g><g transform="translate(209.767 81.771)"><path d="M401.326,126.428v3.827l-3.079-3.827h-.6v5.132h.733v-3.827l3.079,3.827h.6v-5.132Z" transform="translate(-397.645 -126.428)" fill="#fff"/><g transform="translate(0 0)" clip-path="url(#ag)"><rect width="4.413" height="5.132" transform="translate(0)" fill="#fff"/></g></g><g transform="translate(215.72 81.771)"><path d="M414.389,126.428v3.827l-3.079-3.827h-.6v5.132h.733v-3.827l3.079,3.827h.6v-5.132Z" transform="translate(-410.708 -126.428)" fill="#fff"/><g transform="translate(0 0)" clip-path="url(#ah)"><rect width="4.413" height="5.132" transform="translate(0)" fill="#fff"/></g></g><g transform="translate(221.255 81.713)"><path d="M424.565,130.64a1.867,1.867,0,0,1-.718-.708,2.082,2.082,0,0,1,0-2.016,1.867,1.867,0,0,1,.718-.708,2.058,2.058,0,0,1,1.023-.256,2.018,2.018,0,0,1,1.015.256,1.883,1.883,0,0,1,.711.708,2.082,2.082,0,0,1,0,2.016,1.883,1.883,0,0,1-.711.708,2.018,2.018,0,0,1-1.015.257,2.058,2.058,0,0,1-1.023-.257m-.377-4a2.518,2.518,0,0,0-.978.942,2.707,2.707,0,0,0,0,2.684,2.518,2.518,0,0,0,.978.942,3.032,3.032,0,0,0,2.794,0,2.5,2.5,0,0,0,.975-.938,2.747,2.747,0,0,0,0-2.69,2.5,2.5,0,0,0-.975-.938,3.032,3.032,0,0,0-2.794,0" transform="translate(-422.853 -126.3)" fill="#fff"/><g clip-path="url(#ai)"><rect width="5.455" height="5.249" transform="translate(0 0)" fill="#fff"/></g></g><g transform="translate(226.893 81.771)"><path d="M439.725,126.428l-1.862,4.216-1.847-4.216h-.792l2.258,5.132h.726l2.251-5.132Z" transform="translate(-435.224 -126.428)" fill="#fff"/><g transform="translate(0 0)" clip-path="url(#aj)"><rect width="5.235" height="5.132" transform="translate(0)" fill="#fff"/></g></g><g transform="translate(231.842 81.771)"><path d="M448.766,127.176l1.107,2.515h-2.214Zm-.36-.748-2.324,5.132h.755l.564-1.283h2.728l.564,1.283h.77l-2.331-5.132Z" transform="translate(-446.083 -126.428)" fill="#fff"/><g transform="translate(0 0)" clip-path="url(#ak)"><rect width="5.381" height="5.132" transform="translate(0 0)" fill="#fff"/></g></g><g transform="translate(236.988 81.771)"><path d="M457.376,126.428v.638h1.76v4.494h.726v-4.494h1.76v-.638Z" transform="translate(-457.376 -126.428)" fill="#fff"/><g transform="translate(0 0)" clip-path="url(#al)"><rect width="4.245" height="5.132" transform="translate(0)" fill="#fff"/></g></g><g transform="translate(242.032 81.771)"><rect width="0.733" height="5.132" transform="translate(0 0)" fill="#fff"/><g transform="translate(0 0)" clip-path="url(#j)"><rect width="0.733" height="5.132" transform="translate(0)" fill="#fff"/></g></g><g transform="translate(243.887 81.713)"><path d="M474.225,130.64a1.865,1.865,0,0,1-.718-.708,2.083,2.083,0,0,1,0-2.016,1.865,1.865,0,0,1,.718-.708,2.06,2.06,0,0,1,1.023-.256,2.017,2.017,0,0,1,1.016.256,1.881,1.881,0,0,1,.711.708,2.082,2.082,0,0,1,0,2.016,1.881,1.881,0,0,1-.711.708,2.017,2.017,0,0,1-1.016.257,2.061,2.061,0,0,1-1.023-.257m-.377-4a2.518,2.518,0,0,0-.978.942,2.707,2.707,0,0,0,0,2.684,2.518,2.518,0,0,0,.978.942,3.032,3.032,0,0,0,2.793,0,2.5,2.5,0,0,0,.975-.938,2.747,2.747,0,0,0,0-2.69,2.5,2.5,0,0,0-.975-.938,3.031,3.031,0,0,0-2.793,0" transform="translate(-472.513 -126.3)" fill="#fff"/><g clip-path="url(#an)"><rect width="5.455" height="5.249" transform="translate(0 0)" fill="#fff"/></g></g><g transform="translate(250.463 81.771)"><path d="M490.624,126.428v3.827l-3.079-3.827h-.6v5.132h.733v-3.827l3.079,3.827h.6v-5.132Z" transform="translate(-486.943 -126.428)" fill="#fff"/><g transform="translate(0 0)" clip-path="url(#ao)"><rect width="4.413" height="5.132" fill="#fff"/></g></g><g transform="translate(257.971 81.713)"><path d="M504.743,126.641a2.5,2.5,0,0,0-.975.938,2.751,2.751,0,0,0,0,2.69,2.512,2.512,0,0,0,.972.938,2.827,2.827,0,0,0,1.39.341,2.883,2.883,0,0,0,1.1-.205,2.281,2.281,0,0,0,.854-.6l-.477-.462a1.916,1.916,0,0,1-1.444.616,2.1,2.1,0,0,1-1.034-.257,1.859,1.859,0,0,1-.722-.708,2.082,2.082,0,0,1,0-2.016,1.859,1.859,0,0,1,.722-.708,2.1,2.1,0,0,1,1.034-.256,1.912,1.912,0,0,1,1.444.608l.477-.462a2.248,2.248,0,0,0-.85-.6,2.9,2.9,0,0,0-1.1-.2,2.854,2.854,0,0,0-1.393.341" transform="translate(-503.416 -126.3)" fill="#fff"/><g clip-path="url(#ap)"><rect width="4.67" height="5.249" transform="translate(0 0)" fill="#fff"/></g></g><g transform="translate(263.689 81.771)"><path d="M515.963,126.428v5.132h3.724v-.638H516.7v-1.657h2.574v-.623H516.7v-1.576h2.889v-.638Z" transform="translate(-515.963 -126.428)" fill="#fff"/><g transform="translate(0 0)" clip-path="url(#aq)"><rect width="3.724" height="5.132" transform="translate(0)" fill="#fff"/></g></g><g transform="translate(268.601 81.771)"><path d="M530.422,126.428v3.827l-3.079-3.827h-.6v5.132h.733v-3.827l3.08,3.827h.6v-5.132Z" transform="translate(-526.741 -126.428)" fill="#fff"/><g transform="translate(0 0)" clip-path="url(#ar)"><rect width="4.414" height="5.132" fill="#fff"/></g></g><g transform="translate(273.814 81.771)"><path d="M538.179,126.428v.638h1.759v4.494h.726v-4.494h1.76v-.638Z" transform="translate(-538.179 -126.428)" fill="#fff"/><g transform="translate(0 0)" clip-path="url(#as)"><rect width="4.245" height="5.132" fill="#fff"/></g></g><g transform="translate(278.857 81.771)"><path d="M549.246,126.428v5.132h3.725v-.638h-2.992v-1.657h2.573v-.623h-2.573v-1.576h2.888v-.638Z" transform="translate(-549.246 -126.428)" fill="#fff"/><g transform="translate(0 0)" clip-path="url(#at)"><rect width="3.725" height="5.132" fill="#fff"/></g></g><g transform="translate(283.769 81.771)"><path d="M560.757,127.066H562a1.656,1.656,0,0,1,1.063.3,1.182,1.182,0,0,1,0,1.712,1.64,1.64,0,0,1-1.063.3h-1.246Zm-.733-.638v5.132h.733V130h1.268q.118,0,.323-.015l1.107,1.576h.8l-1.217-1.723a1.658,1.658,0,0,0,.836-.608,1.721,1.721,0,0,0,.293-1.012,1.617,1.617,0,0,0-.572-1.313,2.381,2.381,0,0,0-1.569-.476Z" transform="translate(-560.024 -126.428)" fill="#fff"/><g transform="translate(0 0)" clip-path="url(#au)"><rect width="4.231" height="5.132" transform="translate(0 0)" fill="#fff"/></g></g></g></svg>
